<svg version="1.1" viewBox="0.0 0.0 600.0 150.0" fill="none" stroke="none" stroke-linecap="square" stroke-miterlimit="10" xmlns:xlink="http://www.w3.org/1999/xlink" xmlns="http://www.w3.org/2000/svg"><clipPath id="p.0"><path d="m0 0l1152.0 0l0 864.0l-1152.0 0l0 -864.0z" clip-rule="nonzero"/></clipPath><g clip-path="url(#p.0)"><path fill="#000000" fill-opacity="0.0" d="m0 0l1152.0 0l0 864.0l-1152.0 0z" fill-rule="evenodd"/><path fill="#ffffff" d="m15.005249 40.312336l97.88976 0l0 76.81889l-97.88976 0z" fill-rule="evenodd"/><path stroke="#000000" stroke-width="3.0" stroke-linejoin="round" stroke-linecap="butt" d="m15.005249 40.312336l97.88976 0l0 76.81889l-97.88976 0z" fill-rule="evenodd"/><path fill="#000000" d="m30.098999 52.96921q1.90625 0 3.171875 0.984375q1.28125 0.984375 1.53125 2.734375l-1.515625 0q-0.25 -1.171875 -1.09375 -1.796875q-0.84375 -0.640625 -2.109375 -0.640625q-1.8125 0 -2.84375 1.28125q-1.015625 1.28125 -1.015625 3.34375q0 2.1875 1.0 3.484375q1.015625 1.296875 2.875 1.296875q1.40625 0 2.296875 -0.875q0.890625 -0.890625 1.0 -2.421875l1.53125 0q-0.25 2.21875 -1.546875 3.40625q-1.296875 1.1874962 -3.40625 1.1874962q-2.453125 0 -3.875 -1.6249962q-1.40625 -1.640625 -1.40625 -4.34375q0 -2.65625 1.453125 -4.328125q1.46875 -1.6875 3.953125 -1.6875zm10.0546875 3.234375q1.875 0 2.9375 1.21875q1.078125 1.203125 1.078125 3.125q0 1.921875 -1.09375 3.125q-1.09375 1.2031212 -2.921875 1.2031212q-1.796875 0 -2.90625 -1.1718712q-1.109375 -1.1875 -1.109375 -3.15625q0 -1.96875 1.078125 -3.15625q1.09375 -1.1875 2.9375 -1.1875zm-2.578125 4.34375q0 1.421875 0.71875 2.265625q0.734375 0.84375 1.859375 0.84375q1.125 0 1.84375 -0.84375q0.734375 -0.859375 0.734375 -2.265625q0 -1.421875 -0.734375 -2.28125q-0.71875 -0.859375 -1.859375 -0.859375q-1.09375 0 -1.828125 0.84375q-0.734375 0.84375 -0.734375 2.296875zm12.203125 -4.34375q1.5 0 2.171875 0.765625q0.671875 0.765625 0.671875 2.1875l0 5.515621l-1.359375 0l0 -5.656246q0 -0.703125 -0.453125 -1.15625q-0.4375 -0.453125 -1.234375 -0.453125q-1.15625 0 -1.796875 0.703125q-0.640625 0.703125 -0.640625 1.828125l0 4.734371l-1.359375 0l0 -8.281246l1.28125 0l0 1.3125l0.03125 0q0.453125 -0.765625 1.109375 -1.125q0.65625 -0.375 1.578125 -0.375zm8.8984375 0q1.5 0 2.171875 0.765625q0.671875 0.765625 0.671875 2.1875l0 5.515621l-1.359375 0l0 -5.656246q0 -0.703125 -0.453125 -1.15625q-0.4375 -0.453125 -1.234375 -0.453125q-1.15625 0 -1.796875 0.703125q-0.640625 0.703125 -0.640625 1.828125l0 4.734371l-1.359375 0l0 -8.281246l1.28125 0l0 1.3125l0.03125 0q0.453125 -0.765625 1.109375 -1.125q0.65625 -0.375 1.578125 -0.375zm8.3359375 0q1.78125 0 2.765625 1.28125q0.984375 1.28125 0.984375 3.296875l0 0.15625l-6.203125 0l0 0.109375q0 1.171875 0.6875 1.890625q0.6875 0.71875 1.890625 0.71875q0.90625 0 1.4375 -0.421875q0.546875 -0.421875 0.703125 -1.1875l1.34375 0q-0.265625 1.375 -1.203125 2.1093712q-0.921875 0.71875 -2.328125 0.71875q-1.296875 0 -2.203125 -0.59375q-0.90625 -0.5937462 -1.34375 -1.6406212q-0.421875 -1.0625 -0.421875 -2.15625q0 -1.828125 1.09375 -3.046875q1.109375 -1.234375 2.796875 -1.234375zm-2.453125 3.53125l4.75 0q-0.0625 -1.0 -0.734375 -1.65625q-0.65625 -0.671875 -1.65625 -0.671875q-0.9375 0 -1.609375 0.640625q-0.65625 0.625 -0.75 1.6875zm11.0625 -3.53125q1.515625 0 2.453125 0.71875q0.953125 0.71875 1.109375 2.125l-1.40625 0q-0.15625 -0.796875 -0.703125 -1.21875q-0.53125 -0.421875 -1.34375 -0.421875q-1.265625 0 -1.921875 0.84375q-0.65625 0.84375 -0.65625 2.390625q0 1.375 0.640625 2.203125q0.65625 0.8125 1.78125 0.8125q0.984375 0 1.5625 -0.53125q0.578125 -0.53125 0.703125 -1.484375l1.390625 0q-0.21875 1.546875 -1.15625 2.3906212q-0.9375 0.84375 -2.484375 0.84375q-1.8125 0 -2.84375 -1.1406212q-1.03125 -1.140625 -1.03125 -3.09375q0 -2.03125 1.046875 -3.234375q1.046875 -1.203125 2.859375 -1.203125zm7.03125 -2.28125l0 2.46875l1.640625 0l0 1.203125l-1.640625 0l0 5.1875q0 0.609375 0.40625 0.65625q0.40625 0.03125 0.859375 0.03125l0.375 0l0 1.2031212l-1.125 0q-1.109375 0 -1.5 -0.390625q-0.375 -0.4062462 -0.375 -1.3437462l0 -5.34375l-1.421875 0l0 -1.203125l1.421875 0l0 -2.46875l1.359375 0zm6.7109375 2.28125q1.875 0 2.9375 1.21875q1.078125 1.203125 1.078125 3.125q0 1.921875 -1.09375 3.125q-1.09375 1.2031212 -2.921875 1.2031212q-1.796875 0 -2.90625 -1.1718712q-1.109375 -1.1875 -1.109375 -3.15625q0 -1.96875 1.078125 -3.15625q1.09375 -1.1875 2.9375 -1.1875zm-2.578125 4.34375q0 1.421875 0.71875 2.265625q0.734375 0.84375 1.859375 0.84375q1.125 0 1.84375 -0.84375q0.734375 -0.859375 0.734375 -2.265625q0 -1.421875 -0.734375 -2.28125q-0.71875 -0.859375 -1.859375 -0.859375q-1.09375 0 -1.828125 0.84375q-0.734375 0.84375 -0.734375 2.296875zm12.3125 -4.34375q0.046875 0 0.078125 0q0.046875 0 0.109375 0l0 1.4375q-1.53125 0 -2.265625 0.8125q-0.71875 0.8125 -0.71875 2.515625l0 3.7031212l-1.359375 0l0 -8.281246l1.28125 0l0 1.75l0.03125 0q0.46875 -0.984375 1.171875 -1.453125q0.703125 -0.484375 1.671875 -0.484375z" fill-rule="nonzero"/><path fill="#000000" d="m26.864624 72.25046l6.015625 9.265625l0.03125 0l0 -9.265625l1.4375 0l0 11.421875l-1.671875 0l-5.96875 -9.171875l-0.03125 0l0 9.171875l-1.4375 0l0 -11.421875l1.625 0zm13.2890625 2.953125q1.875 0 2.9375 1.21875q1.078125 1.203125 1.078125 3.125q0 1.921875 -1.09375 3.125q-1.09375 1.203125 -2.921875 1.203125q-1.796875 0 -2.90625 -1.171875q-1.109375 -1.1875 -1.109375 -3.15625q0 -1.96875 1.078125 -3.15625q1.09375 -1.1875 2.9375 -1.1875zm-2.578125 4.34375q0 1.421875 0.71875 2.265625q0.734375 0.84375 1.859375 0.84375q1.125 0 1.84375 -0.84375q0.734375 -0.859375 0.734375 -2.265625q0 -1.421875 -0.734375 -2.28125q-0.71875 -0.859375 -1.859375 -0.859375q-1.09375 0 -1.828125 0.84375q-0.734375 0.84375 -0.734375 2.296875zm15.59375 -7.296875l0 11.421875l-1.359375 0l0 -1.125l-0.03125 0q-0.328125 0.640625 -1.03125 0.984375q-0.6875 0.34375 -1.609375 0.34375q-1.734375 0 -2.78125 -1.203125q-1.03125 -1.21875 -1.03125 -3.15625q0 -1.921875 1.0 -3.109375q1.015625 -1.203125 2.765625 -1.203125q0.8125 0 1.546875 0.328125q0.734375 0.328125 1.140625 0.96875l0.03125 0l0 -4.25l1.359375 0zm-6.40625 7.34375q0 1.34375 0.6875 2.203125q0.703125 0.859375 1.875 0.859375q1.203125 0 1.859375 -0.859375q0.671875 -0.859375 0.671875 -2.25q0 -1.421875 -0.6875 -2.28125q-0.671875 -0.859375 -1.9375 -0.859375q-1.171875 0 -1.828125 0.859375q-0.640625 0.84375 -0.640625 2.328125zm11.9375 -4.390625q1.78125 0 2.765625 1.28125q0.984375 1.28125 0.984375 3.296875l0 0.15625l-6.203125 0l0 0.109375q0 1.171875 0.6875 1.890625q0.6875 0.71875 1.890625 0.71875q0.90625 0 1.4375 -0.421875q0.546875 -0.421875 0.703125 -1.1875l1.34375 0q-0.265625 1.375 -1.203125 2.109375q-0.921875 0.71875 -2.328125 0.71875q-1.296875 0 -2.203125 -0.59375q-0.90625 -0.59375 -1.34375 -1.640625q-0.421875 -1.0625 -0.421875 -2.15625q0 -1.828125 1.09375 -3.046875q1.109375 -1.234375 2.796875 -1.234375zm-2.453125 3.53125l4.75 0q-0.0625 -1.0 -0.734375 -1.65625q-0.65625 -0.671875 -1.65625 -0.671875q-0.9375 0 -1.609375 0.640625q-0.65625 0.625 -0.75 1.6875z" fill-rule="nonzero"/><path fill="#ffffff" d="m187.3762 40.312336l84.03148 0l0 76.81889l-84.03148 0z" fill-rule="evenodd"/><path stroke="#000000" stroke-width="3.0" stroke-linejoin="round" stroke-linecap="butt" d="m187.3762 40.312336l84.03148 0l0 76.81889l-84.03148 0z" fill-rule="evenodd"/><path fill="#000000" d="m202.70433 53.25046q1.578125 0 2.5 0.859375q0.9375 0.84375 0.9375 2.515625q0 1.671875 -0.9375 2.53125q-0.921875 0.84375 -2.390625 0.84375l-3.671875 0l0 4.671871l-1.515625 0l0 -11.421871l5.078125 0zm-0.421875 5.46875q1.09375 0 1.71875 -0.515625q0.625 -0.515625 0.625 -1.578125q0 -1.0625 -0.625 -1.578125q-0.609375 -0.515625 -1.8125 -0.515625l-3.046875 0l0 4.1875l3.140625 0zm9.6015625 -2.515625q0.046875 0 0.078125 0q0.046875 0 0.109375 0l0 1.4375q-1.53125 0 -2.265625 0.8125q-0.71875 0.8125 -0.71875 2.515625l0 3.7031212l-1.359375 0l0 -8.281246l1.28125 0l0 1.75l0.03125 0q0.46875 -0.984375 1.171875 -1.453125q0.703125 -0.484375 1.671875 -0.484375zm4.78125 0q1.875 0 2.9375 1.21875q1.078125 1.203125 1.078125 3.125q0 1.921875 -1.09375 3.125q-1.09375 1.2031212 -2.921875 1.2031212q-1.796875 0 -2.90625 -1.1718712q-1.109375 -1.1875 -1.109375 -3.15625q0 -1.96875 1.078125 -3.15625q1.09375 -1.1875 2.9375 -1.1875zm-2.578125 4.34375q0 1.421875 0.71875 2.265625q0.734375 0.84375 1.859375 0.84375q1.125 0 1.84375 -0.84375q0.734375 -0.859375 0.734375 -2.265625q0 -1.421875 -0.734375 -2.28125q-0.71875 -0.859375 -1.859375 -0.859375q-1.09375 0 -1.828125 0.84375q-0.734375 0.84375 -0.734375 2.296875zm9.28125 -4.15625l1.984375 2.890625l0.015625 0l2.046875 -2.890625l1.640625 0l-2.84375 3.8125l3.1875 4.468746l-1.734375 0l-2.3125 -3.4218712l-2.296875 3.4218712l-1.65625 0l3.109375 -4.359371l-2.875 -3.921875l1.734375 0zm7.8515625 0l2.40625 6.765625l0.03125 0l2.328125 -6.765625l1.4375 0l-3.515625 9.171871q-0.546875 1.421875 -1.0625 1.921875q-0.515625 0.5 -1.421875 0.5q-0.25 0 -0.484375 -0.03125q-0.234375 -0.03125 -0.453125 -0.109375l0 -1.25q0.1875 0.0625 0.390625 0.125q0.203125 0.0625 0.40625 0.0625q0.828125 0 1.15625 -0.828125q0.328125 -0.828125 0.515625 -1.328125l-3.28125 -8.234371l1.546875 0z" fill-rule="nonzero"/><path fill="#000000" d="m199.23558 72.25046l6.015625 9.265625l0.03125 0l0 -9.265625l1.4375 0l0 11.421875l-1.671875 0l-5.96875 -9.171875l-0.03125 0l0 9.171875l-1.4375 0l0 -11.421875l1.625 0zm13.2890625 2.953125q1.875 0 2.9375 1.21875q1.078125 1.203125 1.078125 3.125q0 1.921875 -1.09375 3.125q-1.09375 1.203125 -2.921875 1.203125q-1.796875 0 -2.90625 -1.171875q-1.109375 -1.1875 -1.109375 -3.15625q0 -1.96875 1.078125 -3.15625q1.09375 -1.1875 2.9375 -1.1875zm-2.578125 4.34375q0 1.421875 0.71875 2.265625q0.734375 0.84375 1.859375 0.84375q1.125 0 1.84375 -0.84375q0.734375 -0.859375 0.734375 -2.265625q0 -1.421875 -0.734375 -2.28125q-0.71875 -0.859375 -1.859375 -0.859375q-1.09375 0 -1.828125 0.84375q-0.734375 0.84375 -0.734375 2.296875zm15.59375 -7.296875l0 11.421875l-1.359375 0l0 -1.125l-0.03125 0q-0.328125 0.640625 -1.03125 0.984375q-0.6875 0.34375 -1.609375 0.34375q-1.734375 0 -2.78125 -1.203125q-1.03125 -1.21875 -1.03125 -3.15625q0 -1.921875 1.0 -3.109375q1.015625 -1.203125 2.765625 -1.203125q0.8125 0 1.546875 0.328125q0.734375 0.328125 1.140625 0.96875l0.03125 0l0 -4.25l1.359375 0zm-6.40625 7.34375q0 1.34375 0.6875 2.203125q0.703125 0.859375 1.875 0.859375q1.203125 0 1.859375 -0.859375q0.671875 -0.859375 0.671875 -2.25q0 -1.421875 -0.6875 -2.28125q-0.671875 -0.859375 -1.9375 -0.859375q-1.171875 0 -1.828125 0.859375q-0.640625 0.84375 -0.640625 2.328125zm11.9375 -4.390625q1.78125 0 2.765625 1.28125q0.984375 1.28125 0.984375 3.296875l0 0.15625l-6.203125 0l0 0.109375q0 1.171875 0.6875 1.890625q0.6875 0.71875 1.890625 0.71875q0.90625 0 1.4375 -0.421875q0.546875 -0.421875 0.703125 -1.1875l1.34375 0q-0.265625 1.375 -1.203125 2.109375q-0.921875 0.71875 -2.328125 0.71875q-1.296875 0 -2.203125 -0.59375q-0.90625 -0.59375 -1.34375 -1.640625q-0.421875 -1.0625 -0.421875 -2.15625q0 -1.828125 1.09375 -3.046875q1.109375 -1.234375 2.796875 -1.234375zm-2.453125 3.53125l4.75 0q-0.0625 -1.0 -0.734375 -1.65625q-0.65625 -0.671875 -1.65625 -0.671875q-0.9375 0 -1.609375 0.640625q-0.65625 0.625 -0.75 1.6875z" fill-rule="nonzero"/><path fill="#ffffff" d="m345.8889 40.312336l90.17322 0l0 76.81889l-90.17322 0z" fill-rule="evenodd"/><path stroke="#000000" stroke-width="3.0" stroke-linejoin="round" stroke-linecap="butt" d="m345.8889 40.312336l90.17322 0l0 76.81889l-90.17322 0z" fill-rule="evenodd"/><path fill="#000000" d="m357.6545 53.25046l0 4.90625l6.015625 0l0 -4.90625l1.53125 0l0 11.421871l-1.53125 0l0 -5.234371l-6.015625 0l0 5.234371l-1.515625 0l0 -11.421871l1.515625 0zm11.1796875 3.140625l0 5.640625q0 0.703125 0.4375 1.171875q0.453125 0.453125 1.25 0.453125q1.171875 0 1.796875 -0.703125q0.640625 -0.71875 0.640625 -1.828125l0 -4.734375l1.359375 0l0 8.281246l-1.28125 0l0 -1.3124962l-0.03125 0q-0.453125 0.7812462 -1.140625 1.1562462q-0.671875 0.359375 -1.546875 0.359375q-1.453125 0 -2.15625 -0.75q-0.6875 -0.7499962 -0.6875 -2.2187462l0 -5.515625l1.359375 0zm8.9453125 -3.140625l0 4.265625l0.03125 0q0.3125 -0.640625 1.0 -0.96875q0.6875 -0.34375 1.640625 -0.34375q1.765625 0 2.78125 1.21875q1.03125 1.21875 1.03125 3.140625q0 1.921875 -1.015625 3.125q-1.015625 1.1874962 -2.765625 1.1874962q-0.765625 0 -1.515625 -0.328125q-0.734375 -0.328125 -1.15625 -0.9843712l-0.03125 0l0 1.1093712l-1.359375 0l0 -11.421871l1.359375 0zm-0.046875 7.28125q0 1.4375 0.6875 2.28125q0.703125 0.84375 1.921875 0.84375q1.171875 0 1.8125 -0.84375q0.65625 -0.84375 0.65625 -2.34375q0 -1.34375 -0.6875 -2.203125q-0.671875 -0.859375 -1.875 -0.859375q-1.203125 0 -1.859375 0.875q-0.65625 0.875 -0.65625 2.25z" fill-rule="nonzero"/><path fill="#000000" d="m359.98264 71.96921q1.90625 0 3.015625 0.921875q1.125 0.921875 1.1875 2.703125l-1.4375 0q-0.125 -1.171875 -0.84375 -1.75q-0.703125 -0.59375 -1.984375 -0.59375q-1.21875 0 -1.890625 0.515625q-0.671875 0.5 -0.671875 1.4375q0 0.671875 0.5625 1.109375q0.578125 0.421875 3.109375 0.921875q1.828125 0.375 2.734375 1.15625q0.90625 0.765625 0.90625 2.140625q0 1.59375 -1.3125 2.515625q-1.296875 0.90625 -3.15625 0.90625q-2.078125 0 -3.390625 -1.046875q-1.3125 -1.046875 -1.328125 -3.0l1.4375 0q0.015625 1.3125 0.9375 2.03125q0.921875 0.71875 2.390625 0.71875q1.390625 0 2.140625 -0.53125q0.765625 -0.53125 0.765625 -1.546875q0 -0.8125 -0.703125 -1.296875q-0.6875 -0.5 -2.515625 -0.84375q-2.4375 -0.46875 -3.265625 -1.1875q-0.828125 -0.734375 -0.828125 -1.9375q0 -1.53125 1.15625 -2.4375q1.171875 -0.90625 2.984375 -0.90625zm9.7421875 3.234375q1.78125 0 2.765625 1.28125q0.984375 1.28125 0.984375 3.296875l0 0.15625l-6.203125 0l0 0.109375q0 1.171875 0.6875 1.890625q0.6875 0.71875 1.890625 0.71875q0.90625 0 1.4375 -0.421875q0.546875 -0.421875 0.703125 -1.1875l1.34375 0q-0.265625 1.375 -1.203125 2.109375q-0.921875 0.71875 -2.328125 0.71875q-1.296875 0 -2.203125 -0.59375q-0.90625 -0.59375 -1.34375 -1.640625q-0.421875 -1.0625 -0.421875 -2.15625q0 -1.828125 1.09375 -3.046875q1.109375 -1.234375 2.796875 -1.234375zm-2.453125 3.53125l4.75 0q-0.0625 -1.0 -0.734375 -1.65625q-0.65625 -0.671875 -1.65625 -0.671875q-0.9375 0 -1.609375 0.640625q-0.65625 0.625 -0.75 1.6875zm11.71875 -3.53125q0.046875 0 0.078125 0q0.046875 0 0.109375 0l0 1.4375q-1.53125 0 -2.265625 0.8125q-0.71875 0.8125 -0.71875 2.515625l0 3.703125l-1.359375 0l0 -8.28125l1.28125 0l0 1.75l0.03125 0q0.46875 -0.984375 1.171875 -1.453125q0.703125 -0.484375 1.671875 -0.484375zm1.9375 0.1875l2.3125 6.90625l0.03125 0l2.265625 -6.90625l1.421875 0l-3.03125 8.28125l-1.453125 0l-3.0625 -8.28125l1.515625 0zm8.71875 -3.140625l0 1.65625l-1.359375 0l0 -1.65625l1.359375 0zm0 3.140625l0 8.28125l-1.359375 0l0 -8.28125l1.359375 0zm5.5703125 -0.1875q1.515625 0 2.453125 0.71875q0.953125 0.71875 1.109375 2.125l-1.40625 0q-0.15625 -0.796875 -0.703125 -1.21875q-0.53125 -0.421875 -1.34375 -0.421875q-1.265625 0 -1.921875 0.84375q-0.65625 0.84375 -0.65625 2.390625q0 1.375 0.640625 2.203125q0.65625 0.8125 1.78125 0.8125q0.984375 0 1.5625 -0.53125q0.578125 -0.53125 0.703125 -1.484375l1.390625 0q-0.21875 1.546875 -1.15625 2.390625q-0.9375 0.84375 -2.484375 0.84375q-1.8125 0 -2.84375 -1.140625q-1.03125 -1.140625 -1.03125 -3.09375q0 -2.03125 1.046875 -3.234375q1.046875 -1.203125 2.859375 -1.203125zm8.578125 0q1.78125 0 2.765625 1.28125q0.984375 1.28125 0.984375 3.296875l0 0.15625l-6.203125 0l0 0.109375q0 1.171875 0.6875 1.890625q0.6875 0.71875 1.890625 0.71875q0.90625 0 1.4375 -0.421875q0.546875 -0.421875 0.703125 -1.1875l1.34375 0q-0.265625 1.375 -1.203125 2.109375q-0.921875 0.71875 -2.328125 0.71875q-1.296875 0 -2.203125 -0.59375q-0.90625 -0.59375 -1.34375 -1.640625q-0.421875 -1.0625 -0.421875 -2.15625q0 -1.828125 1.09375 -3.046875q1.109375 -1.234375 2.796875 -1.234375zm-2.453125 3.53125l4.75 0q-0.0625 -1.0 -0.734375 -1.65625q-0.65625 -0.671875 -1.65625 -0.671875q-0.9375 0 -1.609375 0.640625q-0.65625 0.625 -0.75 1.6875z" fill-rule="nonzero"/><path fill="#ffffff" d="m510.5433 40.312336l79.18112 0l0 76.81889l-79.18112 0z" fill-rule="evenodd"/><path stroke="#000000" stroke-width="3.0" stroke-linejoin="round" stroke-linecap="butt" d="m510.5433 40.312336l79.18112 0l0 76.81889l-79.18112 0z" fill-rule="evenodd"/><path fill="#000000" d="m522.37146 53.25046l0 11.421871l-1.515625 0l0 -11.421871l1.515625 0zm9.734375 0l0 11.421871l-1.359375 0l0 -1.1249962l-0.03125 0q-0.328125 0.6406212 -1.03125 0.9843712q-0.6875 0.34375 -1.609375 0.34375q-1.734375 0 -2.78125 -1.2031212q-1.03125 -1.21875 -1.03125 -3.15625q0 -1.921875 1.0 -3.109375q1.015625 -1.203125 2.765625 -1.203125q0.8125 0 1.546875 0.328125q0.734375 0.328125 1.140625 0.96875l0.03125 0l0 -4.25l1.359375 0zm-6.40625 7.34375q0 1.34375 0.6875 2.203125q0.703125 0.859375 1.875 0.859375q1.203125 0 1.859375 -0.859375q0.671875 -0.859375 0.671875 -2.25q0 -1.421875 -0.6875 -2.28125q-0.671875 -0.859375 -1.9375 -0.859375q-1.171875 0 -1.828125 0.859375q-0.640625 0.84375 -0.640625 2.328125zm11.9375 -4.390625q1.78125 0 2.765625 1.28125q0.984375 1.28125 0.984375 3.296875l0 0.15625l-6.203125 0l0 0.109375q0 1.171875 0.6875 1.890625q0.6875 0.71875 1.890625 0.71875q0.90625 0 1.4375 -0.421875q0.546875 -0.421875 0.703125 -1.1875l1.34375 0q-0.265625 1.375 -1.203125 2.1093712q-0.921875 0.71875 -2.328125 0.71875q-1.296875 0 -2.203125 -0.59375q-0.90625 -0.5937462 -1.34375 -1.6406212q-0.421875 -1.0625 -0.421875 -2.15625q0 -1.828125 1.09375 -3.046875q1.109375 -1.234375 2.796875 -1.234375zm-2.453125 3.53125l4.75 0q-0.0625 -1.0 -0.734375 -1.65625q-0.65625 -0.671875 -1.65625 -0.671875q-0.9375 0 -1.609375 0.640625q-0.65625 0.625 -0.75 1.6875zm11.609375 -3.53125q1.5 0 2.171875 0.765625q0.671875 0.765625 0.671875 2.1875l0 5.515621l-1.359375 0l0 -5.656246q0 -0.703125 -0.453125 -1.15625q-0.4375 -0.453125 -1.234375 -0.453125q-1.15625 0 -1.796875 0.703125q-0.640625 0.703125 -0.640625 1.828125l0 4.734371l-1.359375 0l0 -8.281246l1.28125 0l0 1.3125l0.03125 0q0.453125 -0.765625 1.109375 -1.125q0.65625 -0.375 1.578125 -0.375zm6.7890625 -2.28125l0 2.46875l1.640625 0l0 1.203125l-1.640625 0l0 5.1875q0 0.609375 0.40625 0.65625q0.40625 0.03125 0.859375 0.03125l0.375 0l0 1.2031212l-1.125 0q-1.109375 0 -1.5 -0.390625q-0.375 -0.4062462 -0.375 -1.3437462l0 -5.34375l-1.421875 0l0 -1.203125l1.421875 0l0 -2.46875l1.359375 0zm4.5859375 -0.671875l0 1.65625l-1.359375 0l0 -1.65625l1.359375 0zm0 3.140625l0 8.281246l-1.359375 0l0 -8.281246l1.359375 0zm4.0078125 -2.46875l0 2.46875l1.640625 0l0 1.203125l-1.640625 0l0 5.1875q0 0.609375 0.40625 0.65625q0.40625 0.03125 0.859375 0.03125l0.375 0l0 1.2031212l-1.125 0q-1.109375 0 -1.5 -0.390625q-0.375 -0.4062462 -0.375 -1.3437462l0 -5.34375l-1.421875 0l0 -1.203125l1.421875 0l0 -2.46875l1.359375 0zm3.7890625 2.46875l2.40625 6.765625l0.03125 0l2.328125 -6.765625l1.4375 0l-3.515625 9.171871q-0.546875 1.421875 -1.0625 1.921875q-0.515625 0.5 -1.421875 0.5q-0.25 0 -0.484375 -0.03125q-0.234375 -0.03125 -0.453125 -0.109375l0 -1.25q0.1875 0.0625 0.390625 0.125q0.203125 0.0625 0.40625 0.0625q0.828125 0 1.15625 -0.828125q0.328125 -0.828125 0.515625 -1.328125l-3.28125 -8.234371l1.546875 0z" fill-rule="nonzero"/><path fill="#000000" d="m525.87146 72.25046q1.578125 0 2.5 0.859375q0.9375 0.84375 0.9375 2.515625q0 1.671875 -0.9375 2.53125q-0.921875 0.84375 -2.390625 0.84375l-3.671875 0l0 4.671875l-1.515625 0l0 -11.421875l5.078125 0zm-0.421875 5.46875q1.09375 0 1.71875 -0.515625q0.625 -0.515625 0.625 -1.578125q0 -1.0625 -0.625 -1.578125q-0.609375 -0.515625 -1.8125 -0.515625l-3.046875 0l0 4.1875l3.140625 0zm9.6015625 -2.515625q0.046875 0 0.078125 0q0.046875 0 0.109375 0l0 1.4375q-1.53125 0 -2.265625 0.8125q-0.71875 0.8125 -0.71875 2.515625l0 3.703125l-1.359375 0l0 -8.28125l1.28125 0l0 1.75l0.03125 0q0.46875 -0.984375 1.171875 -1.453125q0.703125 -0.484375 1.671875 -0.484375zm4.78125 0q1.875 0 2.9375 1.21875q1.078125 1.203125 1.078125 3.125q0 1.921875 -1.09375 3.125q-1.09375 1.203125 -2.921875 1.203125q-1.796875 0 -2.90625 -1.171875q-1.109375 -1.1875 -1.109375 -3.15625q0 -1.96875 1.078125 -3.15625q1.09375 -1.1875 2.9375 -1.1875zm-2.578125 4.34375q0 1.421875 0.71875 2.265625q0.734375 0.84375 1.859375 0.84375q1.125 0 1.84375 -0.84375q0.734375 -0.859375 0.734375 -2.265625q0 -1.421875 -0.734375 -2.28125q-0.71875 -0.859375 -1.859375 -0.859375q-1.09375 0 -1.828125 0.84375q-0.734375 0.84375 -0.734375 2.296875zm8.921875 -4.15625l2.3125 6.90625l0.03125 0l2.265625 -6.90625l1.421875 0l-3.03125 8.28125l-1.453125 0l-3.0625 -8.28125l1.515625 0zm8.71875 -3.140625l0 1.65625l-1.359375 0l0 -1.65625l1.359375 0zm0 3.140625l0 8.28125l-1.359375 0l0 -8.28125l1.359375 0zm9.5078125 -3.140625l0 11.421875l-1.359375 0l0 -1.125l-0.03125 0q-0.328125 0.640625 -1.03125 0.984375q-0.6875 0.34375 -1.609375 0.34375q-1.734375 0 -2.78125 -1.203125q-1.03125 -1.21875 -1.03125 -3.15625q0 -1.921875 1.0 -3.109375q1.015625 -1.203125 2.765625 -1.203125q0.8125 0 1.546875 0.328125q0.734375 0.328125 1.140625 0.96875l0.03125 0l0 -4.25l1.359375 0zm-6.40625 7.34375q0 1.34375 0.6875 2.203125q0.703125 0.859375 1.875 0.859375q1.203125 0 1.859375 -0.859375q0.671875 -0.859375 0.671875 -2.25q0 -1.421875 -0.6875 -2.28125q-0.671875 -0.859375 -1.9375 -0.859375q-1.171875 0 -1.828125 0.859375q-0.640625 0.84375 -0.640625 2.328125zm11.9375 -4.390625q1.78125 0 2.765625 1.28125q0.984375 1.28125 0.984375 3.296875l0 0.15625l-6.203125 0l0 0.109375q0 1.171875 0.6875 1.890625q0.6875 0.71875 1.890625 0.71875q0.90625 0 1.4375 -0.421875q0.546875 -0.421875 0.703125 -1.1875l1.34375 0q-0.265625 1.375 -1.203125 2.109375q-0.921875 0.71875 -2.328125 0.71875q-1.296875 0 -2.203125 -0.59375q-0.90625 -0.59375 -1.34375 -1.640625q-0.421875 -1.0625 -0.421875 -2.15625q0 -1.828125 1.09375 -3.046875q1.109375 -1.234375 2.796875 -1.234375zm-2.453125 3.53125l4.75 0q-0.0625 -1.0 -0.734375 -1.65625q-0.65625 -0.671875 -1.65625 -0.671875q-0.9375 0 -1.609375 0.640625q-0.65625 0.625 -0.75 1.6875zm11.71875 -3.53125q0.046875 0 0.078125 0q0.046875 0 0.109375 0l0 1.4375q-1.53125 0 -2.265625 0.8125q-0.71875 0.8125 -0.71875 2.515625l0 3.703125l-1.359375 0l0 -8.28125l1.28125 0l0 1.75l0.03125 0q0.46875 -0.984375 1.171875 -1.453125q0.703125 -0.484375 1.671875 -0.484375z" fill-rule="nonzero"/><path fill="#000000" fill-opacity="0.0" d="m113.60105 61.745407l75.02361 0" fill-rule="evenodd"/><path stroke="#000000" stroke-width="2.0" stroke-linejoin="round" stroke-linecap="butt" d="m113.60105 61.745407l63.023613 0" fill-rule="evenodd"/><path fill="#000000" stroke="#000000" stroke-width="2.0" stroke-linecap="butt" d="m176.62468 65.048874l9.076187 -3.3034668l-9.076187 -3.3034668z" fill-rule="evenodd"/><path fill="#000000" fill-opacity="0.0" d="m271.20862 61.745407l75.02362 0" fill-rule="evenodd"/><path stroke="#000000" stroke-width="2.0" stroke-linejoin="round" stroke-linecap="butt" d="m271.20862 61.745407l63.02362 0" fill-rule="evenodd"/><path fill="#000000" stroke="#000000" stroke-width="2.0" stroke-linecap="butt" d="m334.23224 65.048874l9.076202 -3.3034668l-9.076202 -3.3034668z" fill-rule="evenodd"/><path fill="#000000" fill-opacity="0.0" d="m436.06427 61.745407l75.02362 0" fill-rule="evenodd"/><path stroke="#000000" stroke-width="2.0" stroke-linejoin="round" stroke-linecap="butt" d="m436.06427 61.745407l63.02362 0" fill-rule="evenodd"/><path fill="#000000" stroke="#000000" stroke-width="2.0" stroke-linecap="butt" d="m499.0879 65.048874l9.076202 -3.3034668l-9.076202 -3.3034668z" fill-rule="evenodd"/><path fill="#000000" fill-opacity="0.0" d="m113.60105 97.03674l75.02361 0" fill-rule="evenodd"/><path stroke="#000000" stroke-width="2.0" stroke-linejoin="round" stroke-linecap="butt" d="m125.60105 97.03674l63.023613 0" fill-rule="evenodd"/><path fill="#000000" stroke="#000000" stroke-width="2.0" stroke-linecap="butt" d="m125.60105 93.733284l-9.076195 3.3034592l9.076195 3.3034668z" fill-rule="evenodd"/><path fill="#000000" fill-opacity="0.0" d="m271.20862 97.03674l75.02362 0" fill-rule="evenodd"/><path stroke="#000000" stroke-width="2.0" stroke-linejoin="round" stroke-linecap="butt" d="m283.20862 97.03674l63.02362 0" fill-rule="evenodd"/><path fill="#000000" stroke="#000000" stroke-width="2.0" stroke-linecap="butt" d="m283.20862 93.733284l-9.076202 3.3034592l9.076202 3.3034668z" fill-rule="evenodd"/><path fill="#000000" fill-opacity="0.0" d="m436.06427 97.03674l75.02362 0" fill-rule="evenodd"/><path stroke="#000000" stroke-width="2.0" stroke-linejoin="round" stroke-linecap="butt" d="m448.06427 97.03674l63.02362 0" fill-rule="evenodd"/><path fill="#000000" stroke="#000000" stroke-width="2.0" stroke-linecap="butt" d="m448.06427 93.733284l-9.076202 3.3034592l9.076202 3.3034668z" fill-rule="evenodd"/><path fill="#000000" d="m129.31909 35.304462l0 0c0 -9.071386 7.353821 -16.425198 16.425201 -16.425198l0 0c4.3562317 0 8.534042 1.7305069 11.614365 4.810829c3.0803223 3.0803223 4.810837 7.258135 4.810837 11.614368l0 0c0 9.071384 -7.353821 16.425198 -16.425201 16.425198l0 0c-9.071381 0 -16.425201 -7.353813 -16.425201 -16.425198z" fill-rule="evenodd"/><path fill="#000000" d="m287.36594 35.304462l0 0c0 -9.071386 7.353821 -16.425198 16.425201 -16.425198l0 0c4.3562317 0 8.534058 1.7305069 11.61438 4.810829c3.0803223 3.0803223 4.8108215 7.258135 4.8108215 11.614368l0 0c0 9.071384 -7.353821 16.425198 -16.425201 16.425198l0 0c-9.071381 0 -16.425201 -7.353813 -16.425201 -16.425198z" fill-rule="evenodd"/><path fill="#000000" d="m451.87668 35.304462l0 0c0 -9.071386 7.353821 -16.425198 16.425201 -16.425198l0 0c4.3562317 0 8.534058 1.7305069 11.61438 4.810829c3.0803223 3.0803223 4.8108215 7.258135 4.8108215 11.614368l0 0c0 9.071384 -7.353821 16.425198 -16.425201 16.425198l0 0c-9.071381 0 -16.425201 -7.353813 -16.425201 -16.425198z" fill-rule="evenodd"/><path fill="#000000" fill-opacity="0.0" d="m131.46194 16.021555l32.850388 0l0 36.409447l-32.850388 0z" fill-rule="evenodd"/><path fill="#ffffff" d="m146.7432 29.17843l0 11.203123l-2.28125 0l0 -7.265625l-2.8125 0l0 -1.7187481l0.15625 0q1.375 0 2.15625 -0.5625q0.796875 -0.5625 0.96875 -1.65625l1.8125 0z" fill-rule="nonzero"/><path fill="#000000" fill-opacity="0.0" d="m289.50824 16.021555l32.850372 0l0 36.409447l-32.850372 0z" fill-rule="evenodd"/><path fill="#ffffff" d="m303.1645 28.95968q1.640625 0 2.734375 0.984375q1.109375 0.96875 1.109375 2.515623q0 1.078125 -0.515625 1.9375q-0.515625 0.859375 -2.171875 1.90625q-1.140625 0.734375 -1.6875 1.21875q-0.546875 0.46875 -0.859375 0.90625l5.296875 0l0 1.953125l-8.21875 0q0 -1.109375 0.390625 -1.96875q0.390625 -0.859375 1.125 -1.53125q0.75 -0.671875 2.828125 -2.0625q0.796875 -0.515625 1.171875 -1.046875q0.375 -0.53125 0.375 -1.140625q0 -0.7499981 -0.46875 -1.2343731q-0.453125 -0.484375 -1.21875 -0.484375q-0.84375 0 -1.296875 0.6875q-0.453125 0.6874981 -0.484375 1.8749981l-2.171875 0l0 -0.203125q0 -1.9531231 1.109375 -3.124998q1.109375 -1.1875 2.953125 -1.1875z" fill-rule="nonzero"/><path fill="#000000" fill-opacity="0.0" d="m454.01907 16.021555l32.850403 0l0 36.409447l-32.850403 0z" fill-rule="evenodd"/><path fill="#ffffff" d="m467.44095 28.95968q1.515625 0 2.640625 0.890625q1.125 0.875 1.125 2.203123q0 0.8125 -0.40625 1.4375q-0.390625 0.609375 -1.171875 0.859375l0 0.03125q0.9375 0.21875 1.453125 0.921875q0.53125 0.6875 0.53125 1.625q0 1.640625 -1.203125 2.671875q-1.203125 1.015625 -2.953125 1.015625q-1.890625 0 -3.03125 -1.078125q-1.125 -1.078125 -1.125 -2.890625l0 -0.125l2.15625 0q0.046875 1.046875 0.5625 1.625q0.515625 0.578125 1.40625 0.578125q0.8125 0 1.3125 -0.5q0.515625 -0.5 0.515625 -1.25q0 -0.84375 -0.5 -1.25q-0.5 -0.421875 -1.859375 -0.421875l-0.234375 0l0 -1.59375l0.375 0.015625q0.96875 0 1.484375 -0.359375q0.515625 -0.375 0.515625 -1.046875q0 -0.6718731 -0.453125 -1.0781231q-0.4375 -0.421875 -1.125 -0.421875q-0.765625 0 -1.25 0.515625q-0.46875 0.5 -0.484375 1.4843731l-2.15625 0q0.0625 -1.7656231 1.109375 -2.812498q1.0625 -1.046875 2.765625 -1.046875z" fill-rule="nonzero"/><path fill="#000000" d="m138.5895 128.4147l0 0c0 -9.071388 7.353821 -16.425201 16.425201 -16.425201l0 0c4.3562317 0 8.534042 1.7305069 11.614365 4.810829c3.0803223 3.0803223 4.810837 7.258133 4.810837 11.614372l0 0c0 9.071381 -7.353821 16.425186 -16.425201 16.425186l0 0c-9.071381 0 -16.425201 -7.3538055 -16.425201 -16.425186z" fill-rule="evenodd"/><path fill="#000000" d="m296.63635 128.4147l0 0c0 -9.071388 7.3537903 -16.425201 16.42517 -16.425201l0 0c4.3562317 0 8.534058 1.7305069 11.61438 4.810829c3.0803223 3.0803223 4.8108215 7.258133 4.8108215 11.614372l0 0c0 9.071381 -7.3537903 16.425186 -16.425201 16.425186l0 0c-9.071381 0 -16.42517 -7.3538055 -16.42517 -16.425186z" fill-rule="evenodd"/><path fill="#000000" d="m461.1471 128.4147l0 0c0 -9.071388 7.3537903 -16.425201 16.425201 -16.425201l0 0c4.3562317 0 8.534027 1.7305069 11.614349 4.810829c3.0803223 3.0803223 4.8108215 7.258133 4.8108215 11.614372l0 0c0 9.071381 -7.3537903 16.425186 -16.42517 16.425186l0 0c-9.071411 0 -16.425201 -7.3538055 -16.425201 -16.425186z" fill-rule="evenodd"/><path fill="#000000" fill-opacity="0.0" d="m140.73235 109.13179l32.850388 0l0 36.409454l-32.850388 0z" fill-rule="evenodd"/><path fill="#ffffff" d="m154.46672 122.069916q1.5 0 2.46875 0.828125q0.96875 0.828125 1.171875 2.265625l-2.15625 0q-0.140625 -0.640625 -0.5625 -1.015625q-0.40625 -0.375 -0.953125 -0.375q-0.921875 0 -1.484375 0.921875q-0.5625 0.90625 -0.65625 2.484375l0.03125 0.03125q0.46875 -0.65625 1.078125 -0.953125q0.609375 -0.296875 1.4375 -0.296875q0.921875 0 1.78125 0.515625q0.875 0.5 1.265625 1.359375q0.40625 0.84375 0.40625 1.78125q0 1.75 -1.109375 2.9375q-1.109375 1.171875 -2.8125 1.171875q-2.109375 0 -3.203125 -1.515625q-1.09375 -1.515625 -1.09375 -4.28125q0 -2.53125 1.15625 -4.1875q1.171875 -1.671875 3.234375 -1.671875zm-1.96875 7.6875q0 0.84375 0.5 1.46875q0.515625 0.609375 1.3125 0.609375q0.734375 0 1.21875 -0.59375q0.5 -0.609375 0.5 -1.453125q0 -0.859375 -0.453125 -1.484375q-0.453125 -0.625 -1.28125 -0.625q-0.8125 0 -1.3125 0.578125q-0.484375 0.578125 -0.484375 1.5z" fill-rule="nonzero"/><path fill="#000000" fill-opacity="0.0" d="m298.77863 109.13179l32.850403 0l0 36.409454l-32.850403 0z" fill-rule="evenodd"/><path fill="#ffffff" d="m315.77863 122.288666l0 1.875l-4.625 0l-0.4375 2.546875l0.03125 0.03125q0.421875 -0.421875 0.9375 -0.640625q0.515625 -0.234375 1.25 -0.234375q1.5625 0 2.5 1.078125q0.953125 1.0625 0.953125 2.734375q0 1.671875 -1.203125 2.859375q-1.1875 1.1875 -2.90625 1.1875q-1.8125 0 -2.984375 -0.953125q-1.171875 -0.953125 -1.21875 -2.609375l2.265625 0q0.09375 0.765625 0.59375 1.21875q0.5 0.453125 1.25 0.453125q0.828125 0 1.375 -0.625q0.5625 -0.640625 0.5625 -1.53125q0 -0.921875 -0.546875 -1.5q-0.53125 -0.59375 -1.40625 -0.59375q-0.59375 0 -0.984375 0.21875q-0.390625 0.21875 -0.71875 0.671875l-2.046875 0l1.109375 -6.1875l6.25 0z" fill-rule="nonzero"/><path fill="#000000" fill-opacity="0.0" d="m463.2895 109.13179l32.850372 0l0 36.409454l-32.850372 0z" fill-rule="evenodd"/><path fill="#ffffff" d="m479.44574 122.288666l0 6.734375l1.484375 0l0 1.875l-1.484375 0l0 2.59375l-2.15625 0l0 -2.59375l-4.734375 0l0 -2.078125l4.859375 -6.53125l2.03125 0zm-2.203125 2.84375l-2.90625 3.890625l2.953125 0l0 -3.890625l-0.046875 0z" fill-rule="nonzero"/></g></svg>
