<svg xmlns="http://www.w3.org/2000/svg" xmlns:xlink="http://www.w3.org/1999/xlink" contentScriptType="application/ecmascript" contentStyleType="text/css" height="606px" preserveAspectRatio="none" style="width:735px;height:606px;" version="1.1" viewBox="0 0 735 606" width="735px" zoomAndPan="magnify"><defs><filter height="300%" id="ft9fostrr1duo" width="300%" x="-1" y="-1"><feGaussianBlur result="blurOut" stdDeviation="2.0"/><feColorMatrix in="blurOut" result="blurOut2" type="matrix" values="0 0 0 0 0 0 0 0 0 0 0 0 0 0 0 0 0 0 .4 0"/><feOffset dx="4.0" dy="4.0" in="blurOut2" result="blurOut3"/><feBlend in="SourceGraphic" in2="blurOut3" mode="normal"/></filter></defs><g><line style="stroke: #000000; stroke-width: 1.0; stroke-dasharray: 5.0,5.0;" x1="32" x2="32" y1="38.4883" y2="566.457"/><line style="stroke: #000000; stroke-width: 1.0; stroke-dasharray: 5.0,5.0;" x1="347.5" x2="347.5" y1="38.4883" y2="566.457"/><line style="stroke: #000000; stroke-width: 1.0; stroke-dasharray: 5.0,5.0;" x1="400.5" x2="400.5" y1="38.4883" y2="566.457"/><line style="stroke: #000000; stroke-width: 1.0; stroke-dasharray: 5.0,5.0;" x1="710" x2="710" y1="38.4883" y2="566.457"/><rect fill="#DEE0E2" filter="url(#ft9fostrr1duo)" height="30.4883" style="stroke: #000000; stroke-width: 1.5;" width="45" x="8" y="3"/><text fill="#000000" font-family="sans-serif" font-size="14" lengthAdjust="spacingAndGlyphs" textLength="31" x="15" y="23.5352">User</text><rect fill="#DEE0E2" filter="url(#ft9fostrr1duo)" height="30.4883" style="stroke: #000000; stroke-width: 1.5;" width="45" x="8" y="565.457"/><text fill="#000000" font-family="sans-serif" font-size="14" lengthAdjust="spacingAndGlyphs" textLength="31" x="15" y="585.9922">User</text><rect fill="#DEE0E2" filter="url(#ft9fostrr1duo)" height="30.4883" style="stroke: #000000; stroke-width: 1.5;" width="36" x="327.5" y="3"/><text fill="#000000" font-family="sans-serif" font-size="14" lengthAdjust="spacingAndGlyphs" textLength="22" x="334.5" y="23.5352">IDP</text><rect fill="#DEE0E2" filter="url(#ft9fostrr1duo)" height="30.4883" style="stroke: #000000; stroke-width: 1.5;" width="36" x="327.5" y="565.457"/><text fill="#000000" font-family="sans-serif" font-size="14" lengthAdjust="spacingAndGlyphs" textLength="22" x="334.5" y="585.9922">IDP</text><rect fill="#DEE0E2" filter="url(#ft9fostrr1duo)" height="30.4883" style="stroke: #000000; stroke-width: 1.5;" width="42" x="377.5" y="3"/><text fill="#000000" font-family="sans-serif" font-size="14" lengthAdjust="spacingAndGlyphs" textLength="28" x="384.5" y="23.5352">Hub</text><rect fill="#DEE0E2" filter="url(#ft9fostrr1duo)" height="30.4883" style="stroke: #000000; stroke-width: 1.5;" width="42" x="377.5" y="565.457"/><text fill="#000000" font-family="sans-serif" font-size="14" lengthAdjust="spacingAndGlyphs" textLength="28" x="384.5" y="585.9922">Hub</text><rect fill="#DEE0E2" filter="url(#ft9fostrr1duo)" height="30.4883" style="stroke: #000000; stroke-width: 1.5;" width="31" x="693" y="3"/><text fill="#000000" font-family="sans-serif" font-size="14" lengthAdjust="spacingAndGlyphs" textLength="17" x="700" y="23.5352">RP</text><rect fill="#DEE0E2" filter="url(#ft9fostrr1duo)" height="30.4883" style="stroke: #000000; stroke-width: 1.5;" width="31" x="693" y="565.457"/><text fill="#000000" font-family="sans-serif" font-size="14" lengthAdjust="spacingAndGlyphs" textLength="17" x="700" y="585.9922">RP</text><polygon fill="#000000" points="335.5,65.7988,345.5,69.7988,335.5,73.7988,339.5,69.7988" style="stroke: #000000; stroke-width: 1.0;"/><line style="stroke: #000000; stroke-width: 1.0;" x1="32.5" x2="341.5" y1="69.7988" y2="69.7988"/><text fill="#000000" font-family="sans-serif" font-size="13" lengthAdjust="spacingAndGlyphs" textLength="89" x="39.5" y="65.0566">follow prompt</text><polygon fill="#000000" points="43.5,95.1094,33.5,99.1094,43.5,103.1094,39.5,99.1094" style="stroke: #000000; stroke-width: 1.0;"/><line style="stroke: #000000; stroke-width: 1.0;" x1="37.5" x2="346.5" y1="99.1094" y2="99.1094"/><text fill="#000000" font-family="sans-serif" font-size="13" lengthAdjust="spacingAndGlyphs" textLength="291" x="49.5" y="94.3672">Handover A: provide Journey initiation request</text><polygon fill="#000000" points="388.5,124.4199,398.5,128.4199,388.5,132.4199,392.5,128.4199" style="stroke: #000000; stroke-width: 1.0;"/><line style="stroke: #000000; stroke-width: 1.0;" x1="32.5" x2="394.5" y1="128.4199" y2="128.4199"/><text fill="#000000" font-family="sans-serif" font-size="13" lengthAdjust="spacingAndGlyphs" textLength="321" x="39.5" y="123.6777">Handover A: send Journey initiation request to Hub</text><line style="stroke: #000000; stroke-width: 1.0;" x1="400.5" x2="442.5" y1="157.7305" y2="157.7305"/><line style="stroke: #000000; stroke-width: 1.0;" x1="442.5" x2="442.5" y1="157.7305" y2="170.7305"/><line style="stroke: #000000; stroke-width: 1.0;" x1="401.5" x2="442.5" y1="170.7305" y2="170.7305"/><polygon fill="#000000" points="411.5,166.7305,401.5,170.7305,411.5,174.7305,407.5,170.7305" style="stroke: #000000; stroke-width: 1.0;"/><text fill="#000000" font-family="sans-serif" font-size="13" lengthAdjust="spacingAndGlyphs" textLength="91" x="407.5" y="152.9883">tracks session</text><polygon fill="#000000" points="43.5,196.041,33.5,200.041,43.5,204.041,39.5,200.041" style="stroke: #000000; stroke-width: 1.0;"/><line style="stroke: #000000; stroke-width: 1.0;" x1="37.5" x2="399.5" y1="200.041" y2="200.041"/><text fill="#000000" font-family="sans-serif" font-size="13" lengthAdjust="spacingAndGlyphs" textLength="237" x="49.5" y="195.2988">Handover B: redirect to Replying Party</text><polygon fill="#000000" points="698.5,225.3516,708.5,229.3516,698.5,233.3516,702.5,229.3516" style="stroke: #000000; stroke-width: 1.0;"/><line style="stroke: #000000; stroke-width: 1.0;" x1="32.5" x2="704.5" y1="229.3516" y2="229.3516"/><text fill="#000000" font-family="sans-serif" font-size="13" lengthAdjust="spacingAndGlyphs" textLength="280" x="39.5" y="224.6094">Handover B: follow redirect to Replying Party</text><polygon fill="#000000" points="43.5,254.6621,33.5,258.6621,43.5,262.6621,39.5,258.6621" style="stroke: #000000; stroke-width: 1.0;"/><line style="stroke: #000000; stroke-width: 1.0;" x1="37.5" x2="709.5" y1="258.6621" y2="258.6621"/><text fill="#000000" font-family="sans-serif" font-size="13" lengthAdjust="spacingAndGlyphs" textLength="287" x="49.5" y="253.9199">Handover C: provide &lt;AuthnRequest&gt; to Hub</text><polygon fill="#000000" points="388.5,283.9727,398.5,287.9727,388.5,291.9727,392.5,287.9727" style="stroke: #000000; stroke-width: 1.0;"/><line style="stroke: #000000; stroke-width: 1.0;" x1="32.5" x2="394.5" y1="287.9727" y2="287.9727"/><text fill="#000000" font-family="sans-serif" font-size="13" lengthAdjust="spacingAndGlyphs" textLength="270" x="39.5" y="283.2305">Handover C: send &lt;AuthnRequest&gt; to Hub</text><line style="stroke: #000000; stroke-width: 1.0;" x1="400.5" x2="442.5" y1="317.2832" y2="317.2832"/><line style="stroke: #000000; stroke-width: 1.0;" x1="442.5" x2="442.5" y1="317.2832" y2="330.2832"/><line style="stroke: #000000; stroke-width: 1.0;" x1="401.5" x2="442.5" y1="330.2832" y2="330.2832"/><polygon fill="#000000" points="411.5,326.2832,401.5,330.2832,411.5,334.2832,407.5,330.2832" style="stroke: #000000; stroke-width: 1.0;"/><text fill="#000000" font-family="sans-serif" font-size="13" lengthAdjust="spacingAndGlyphs" textLength="110" x="407.5" y="312.541">handover content</text><polygon fill="#000000" points="43.5,355.5938,33.5,359.5938,43.5,363.5938,39.5,359.5938" style="stroke: #000000; stroke-width: 1.0;"/><line style="stroke: #000000; stroke-width: 1.0;" x1="37.5" x2="399.5" y1="359.5938" y2="359.5938"/><text fill="#000000" font-family="sans-serif" font-size="13" lengthAdjust="spacingAndGlyphs" textLength="283" x="49.5" y="354.8516">Handover D: provide &lt;AuthnRequest&gt; to IDP</text><polygon fill="#000000" points="335.5,384.9043,345.5,388.9043,335.5,392.9043,339.5,388.9043" style="stroke: #000000; stroke-width: 1.0;"/><line style="stroke: #000000; stroke-width: 1.0;" x1="32.5" x2="341.5" y1="388.9043" y2="388.9043"/><text fill="#000000" font-family="sans-serif" font-size="13" lengthAdjust="spacingAndGlyphs" textLength="266" x="39.5" y="384.1621">Handover D: send &lt;AuthnRequest&gt; to IDP</text><polygon fill="#000000" points="43.5,414.2148,33.5,418.2148,43.5,422.2148,39.5,418.2148" style="stroke: #000000; stroke-width: 1.0;"/><line style="stroke: #000000; stroke-width: 1.0;" x1="37.5" x2="346.5" y1="418.2148" y2="418.2148"/><text fill="#000000" font-family="sans-serif" font-size="13" lengthAdjust="spacingAndGlyphs" textLength="257" x="49.5" y="413.4727">Handover E: provide &lt;Response&gt; to Hub</text><polygon fill="#000000" points="388.5,443.5254,398.5,447.5254,388.5,451.5254,392.5,447.5254" style="stroke: #000000; stroke-width: 1.0;"/><line style="stroke: #000000; stroke-width: 1.0;" x1="32.5" x2="394.5" y1="447.5254" y2="447.5254"/><text fill="#000000" font-family="sans-serif" font-size="13" lengthAdjust="spacingAndGlyphs" textLength="240" x="39.5" y="442.7832">Handover E: send &lt;Response&gt; to Hub</text><line style="stroke: #000000; stroke-width: 1.0;" x1="400.5" x2="442.5" y1="476.8359" y2="476.8359"/><line style="stroke: #000000; stroke-width: 1.0;" x1="442.5" x2="442.5" y1="476.8359" y2="489.8359"/><line style="stroke: #000000; stroke-width: 1.0;" x1="401.5" x2="442.5" y1="489.8359" y2="489.8359"/><polygon fill="#000000" points="411.5,485.8359,401.5,489.8359,411.5,493.8359,407.5,489.8359" style="stroke: #000000; stroke-width: 1.0;"/><text fill="#000000" font-family="sans-serif" font-size="13" lengthAdjust="spacingAndGlyphs" textLength="296" x="407.5" y="472.0938">validates &lt;Response&gt; and facilitates matching</text><polygon fill="#000000" points="43.5,515.1465,33.5,519.1465,43.5,523.1465,39.5,519.1465" style="stroke: #000000; stroke-width: 1.0;"/><line style="stroke: #000000; stroke-width: 1.0;" x1="37.5" x2="399.5" y1="519.1465" y2="519.1465"/><text fill="#000000" font-family="sans-serif" font-size="13" lengthAdjust="spacingAndGlyphs" textLength="246" x="49.5" y="514.4043">Handvoer F: provide &lt;Response&gt; to RP</text><polygon fill="#000000" points="698.5,544.457,708.5,548.457,698.5,552.457,702.5,548.457" style="stroke: #000000; stroke-width: 1.0;"/><line style="stroke: #000000; stroke-width: 1.0;" x1="32.5" x2="704.5" y1="548.457" y2="548.457"/><text fill="#000000" font-family="sans-serif" font-size="13" lengthAdjust="spacingAndGlyphs" textLength="229" x="39.5" y="543.7148">Handover F: send &lt;Response&gt; to RP</text></g></svg>
